<svg width="55" height="55" viewBox="0 0 55 55" fill="none" xmlns="http://www.w3.org/2000/svg">
<circle cx="27.3" cy="27.3" r="27.3" fill="#ED017F"/>
<path d="M46.5092 36.5458L48.2041 38.4829" stroke="white" stroke-width="0.697589"/>
<path d="M47.0741 36.0616C46.8534 36.417 46.8585 36.6295 47.0741 37.0301" stroke="white" stroke-width="0.174397"/>
<path d="M46.5092 36.5458L47.9619 34.7702" stroke="white" stroke-width="0.697589"/>
<path d="M45.8634 36.5458H46.6705" stroke="white" stroke-width="0.523192"/>
<path d="M46.6705 36.0616C46.3507 36.4163 46.1742 36.4047 45.8634 36.0616M46.6705 37.0301C46.351 36.7329 46.1738 36.7002 45.8634 37.0301" stroke="white" stroke-width="0.174397"/>
<path d="M32.4655 38.3215C33.8375 38.4022 33.7568 36.5458 32.4655 36.5458M45.8634 38.6443V34.6437" stroke="white" stroke-width="0.697589"/>
<path d="M40.5365 38.6443C40.5365 38.6443 40.5365 35.0123 40.5365 34.9316C40.5365 34.8509 43.1192 38.4022 43.1192 38.3215C43.1192 38.2407 43.1192 34.6088 43.1192 34.6088" stroke="white" stroke-width="0.697589"/>
<path d="M38.3574 38.4829C38.3574 38.4829 37.066 34.7702 36.9046 34.7702C36.7432 34.7702 35.3711 38.4829 35.3711 38.4829" stroke="white" stroke-width="0.697589"/>
<path d="M32.4655 34.9316C33.434 34.9316 33.434 36.5458 32.4655 36.5458" stroke="white" stroke-width="0.697589"/>
<path d="M31.4163 36.5458H32.6269" stroke="white" stroke-width="0.697589"/>
<path d="M31.3356 34.9316H32.6269" stroke="white" stroke-width="0.697589"/>
<path d="M25.0402 34.9316C27.2193 34.9316 27.2193 38.3215 25.0402 38.3215M31.3356 34.595V36.5862V38.5636" stroke="white" stroke-width="0.697589"/>
<path d="M31.0127 38.3215H32.6269" stroke="white" stroke-width="0.697589"/>
<path d="M17.9376 36.7072C17.9376 34.6895 20.1975 34.4473 21.0046 35.5773M25.0402 34.9316C22.6996 34.9316 22.861 38.3215 25.0402 38.3215" stroke="white" stroke-width="0.697589"/>
<path d="M17.9376 36.7072C17.9376 38.8057 21.166 38.8864 21.166 36.7072" stroke="white" stroke-width="0.697589"/>
<path d="M21.4888 36.788H21.166M19.5518 36.788H21.166M21.166 36.788V36.985M21.166 38.6443V36.985M21.166 36.4429V36.985" stroke="white" stroke-width="0.697589"/>
<path d="M12.9335 38.6443C12.9335 38.6443 12.9335 35.0123 12.9335 34.9316C12.9335 34.8509 15.5162 38.4829 15.5162 38.3215C15.5162 38.16 15.5162 34.6088 15.5162 34.6088" stroke="white" stroke-width="0.697589"/>
<path d="M10.3507 34.6088V38.6443" stroke="white" stroke-width="0.697589"/>
<path d="M6.15381 34.9316H8.41371" stroke="white" stroke-width="0.697589"/>
<path d="M6.15381 36.6266H8.09086" stroke="white" stroke-width="0.610391"/>
<path d="M6.47668 34.6088V38.6443" stroke="white" stroke-width="0.697589"/>
<path d="M20.6817 32.2682L20.6817 32.4296C20.457 32.3012 20.3168 32.0365 20.2767 31.5861C20.2304 31.0651 20.3179 30.2956 20.5634 29.2012L20.4396 30.1697C20.3648 30.8631 20.3555 31.2519 20.4396 31.9453L20.5203 32.1068L20.6817 32.2682Z" fill="#ED017F"/>
<path d="M25.6858 13.8661C22.7575 21.7621 21.1732 26.4835 20.5634 29.2012M20.4396 31.9453L20.5203 32.1068L20.6817 32.2682C20.6817 32.2682 20.6817 32.3005 20.6817 32.4296C20.457 32.3012 20.3168 32.0365 20.2767 31.5861M20.4396 31.9453L20.2767 31.5861M20.4396 31.9453C20.3555 31.2519 20.3648 30.8631 20.4396 30.1697L20.5634 29.2012M20.2767 31.5861C20.2304 31.0651 20.3179 30.2956 20.5634 29.2012M17.6954 19.3545C18.664 16.7717 32.2234 15.9646 34.4832 17.4174M26.735 23.5514C24.7173 24.1971 18.2604 22.9057 17.9376 24.7621" stroke="white" stroke-width="0.523192"/>
<path d="M35.8553 37.3529H37.7924" stroke="white" stroke-width="0.697589"/>
</svg>
