<svg width="578" height="432" viewBox="0 0 578 432" fill="none" xmlns="http://www.w3.org/2000/svg">
<g clip-path="url(#clip0_87_1191)">
<path d="M284.846 396.756C369.458 396.756 438.052 331.592 438.052 251.208C438.052 170.824 369.458 105.66 284.846 105.66C200.232 105.66 131.64 170.824 131.64 251.208C131.64 331.592 200.232 396.756 284.846 396.756Z" fill="#ED017F"/>
<path d="M125.245 194.472L125.101 194.76C124.559 195.948 123.15 196.452 121.958 195.912L86.0858 179.676C84.8937 179.136 84.3879 177.732 84.9298 176.544L85.0743 176.256C85.6162 175.068 87.0251 174.564 88.2172 175.104L124.089 191.34C125.245 191.88 125.787 193.284 125.245 194.472Z" fill="#ED017F"/>
<path d="M116.865 263.988L116.901 264.312C117.045 265.608 116.106 266.76 114.842 266.904L75.7182 271.404C74.4177 271.548 73.2617 270.612 73.1172 269.352L73.0811 269.028C72.9366 267.732 73.8758 266.58 75.1402 266.436L114.264 261.936C115.528 261.756 116.72 262.692 116.865 263.988Z" fill="#ED017F"/>
<path d="M137.095 329.148L137.311 329.4C138.142 330.408 137.998 331.884 136.986 332.712L106.677 357.804C105.666 358.632 104.185 358.488 103.354 357.48L103.137 357.228C102.306 356.22 102.451 354.744 103.462 353.916L133.771 328.824C134.783 327.996 136.264 328.14 137.095 329.148Z" fill="#ED017F"/>
<path d="M439.207 198.756L439.352 199.044C439.894 200.232 441.303 200.736 442.495 200.196L478.367 183.96C479.559 183.42 480.065 182.016 479.523 180.828L479.378 180.54C478.836 179.352 477.428 178.848 476.235 179.388L440.363 195.624C439.207 196.164 438.665 197.568 439.207 198.756Z" fill="#ED017F"/>
<path d="M447.589 268.272L447.553 268.596C447.408 269.892 448.348 271.044 449.612 271.188L488.735 275.688C490.036 275.832 491.192 274.896 491.336 273.636L491.372 273.312C491.517 272.016 490.578 270.864 489.313 270.72L450.19 266.22C448.889 266.076 447.733 267.012 447.589 268.272Z" fill="#ED017F"/>
<path d="M427.323 333.432L427.106 333.684C426.275 334.692 426.42 336.168 427.431 336.996L457.74 362.088C458.751 362.916 460.233 362.772 461.063 361.764L461.28 361.512C462.111 360.504 461.967 359.028 460.955 358.2L430.646 333.108C429.671 332.316 428.154 332.46 427.323 333.432Z" fill="#ED017F"/>
<path d="M283.22 164.916C283.22 164.916 273.647 147.204 258.655 139.428C243.663 131.652 234.09 132.66 234.09 132.66C234.09 132.66 236.474 150.372 252.658 158.94C268.842 167.508 283.22 164.916 283.22 164.916Z" fill="#559D77"/>
<path d="M286.363 242.208C286.399 240.228 288.494 222.984 301.933 208.656C315.371 194.328 347.595 182.376 353.338 186.516C353.338 186.516 355.217 194.724 351.857 202.176C348.534 209.592 335.89 226.98 322.307 236.016C308.724 244.98 286.254 249.624 286.363 242.208Z" fill="#559D77"/>
<path d="M352.544 186.948C351.207 188.1 350.051 203.472 336.649 215.028C323.246 226.584 308.652 240.3 304.172 242.28C299.693 244.26 309.627 242.784 314.793 240.624C325.811 236.016 333.036 228.816 341.128 219.168C347.811 211.176 352.616 205.308 353.591 196.92C353.88 194.4 354.386 186.696 353.266 186.48C353.013 186.372 352.724 186.696 352.544 186.948Z" fill="#2E8656"/>
<path d="M293.732 242.928C293.732 241.92 314.829 220.644 327.726 208.62C331.7 204.912 334.915 202.068 336.468 200.988C343.079 196.38 343.079 196.38 343.079 196.38" stroke="#2E8656" stroke-width="2" stroke-miterlimit="10"/>
<path d="M331.52 194.4L327.727 208.62" stroke="#2E8656" stroke-width="2" stroke-miterlimit="10"/>
<path d="M320.429 215.64L335.348 212.652" stroke="#2E8656" stroke-width="2" stroke-miterlimit="10"/>
<path d="M313.492 222.444L314.648 207.432" stroke="#2E8656" stroke-width="2" stroke-miterlimit="10"/>
<path d="M306.81 228.672L322.849 227.664" stroke="#2E8656" stroke-width="2" stroke-miterlimit="10"/>
<path d="M280.041 238.824C274.405 218.196 264.976 208.08 257.607 202.644C240.556 190.044 212.089 186.12 212.089 186.12C212.089 186.12 209.488 209.808 233.475 227.7C233.475 227.7 252.26 244.224 277.729 245.628C279.137 245.7 279.788 245.196 279.932 245.016C281.449 243.684 280.51 240.3 280.041 238.824Z" fill="#559D77"/>
<path d="M212.09 186.12C212.09 186.12 220.687 209.052 232.609 219.96C232.609 219.96 258.835 239.724 261.039 241.02C263.243 242.352 263.243 242.352 263.243 242.352C263.243 242.352 255.512 240.696 254.97 240.48C254.428 240.264 236.618 233.64 225.817 221.328C214.98 209.016 213.462 201.528 212.451 194.148C211.439 186.768 212.09 186.12 212.09 186.12Z" fill="#2E8656"/>
<path d="M272.021 241.92L246.914 218.448L215.521 189.108" stroke="#2E8656" stroke-width="2" stroke-miterlimit="10"/>
<path d="M247.167 204.3L249.009 220.464" stroke="#2E8656" stroke-width="2" stroke-miterlimit="10"/>
<path d="M232.681 205.128L218.592 203.148" stroke="#2E8656" stroke-width="2" stroke-miterlimit="10"/>
<path d="M255.874 226.728L239.979 226.08" stroke="#2E8656" stroke-width="2" stroke-miterlimit="10"/>
<path d="M264.255 234.684C263.93 234.18 263.93 223.956 263.93 223.956" stroke="#2E8656" stroke-width="2" stroke-miterlimit="10"/>
<path d="M236.727 209.124L235.933 197.244" stroke="#2E8656" stroke-width="2" stroke-miterlimit="10"/>
<path d="M282.316 173.34C282.316 172.332 293.515 146.88 310.891 139.896C328.267 132.948 334.264 133.92 334.264 133.92C334.264 133.92 327.473 152.64 318.297 159.984C309.121 167.328 282.316 173.34 282.316 173.34Z" fill="#559D77"/>
<path d="M283.798 171.504C283.906 170.64 298.392 152.892 309.085 147.06C315.299 143.676 324.547 138.636 333.614 135.072C333.723 135.036 333.795 135 333.831 135C332.278 139.068 330.58 142.596 328.954 145.62C325.992 151.092 323.788 155.232 319.489 158.976C316.563 161.568 313.962 162.72 309.88 164.736C305.148 167.112 299.006 169.416 290.228 171.252L283.509 173.016L283.798 171.504Z" fill="#2E8656"/>
<path d="M352.183 151.452C351.822 150.264 370.426 151.848 380.144 157.68C389.861 163.512 393.727 173.196 393.727 173.196C393.727 173.196 379.349 174.924 369.776 170.82C360.167 166.716 354.206 158.364 352.183 151.452Z" fill="#559D77"/>
<path d="M352.652 151.704C361.07 158.256 368.62 162.432 374.255 165.096C381.805 168.66 393.727 173.232 393.727 173.232C393.727 173.232 391.559 166.428 385.273 161.46C382.239 159.084 379.71 157.392 377.001 156.096C373.135 154.26 370.029 153.504 366.886 152.784C359.805 151.164 352.327 150.696 352.219 151.308C352.183 151.452 352.472 151.596 352.652 151.704Z" fill="#2E8656"/>
<path d="M376.386 134.46L283.292 197.748" stroke="#DC952D" stroke-width="5" stroke-miterlimit="10"/>
<path d="M199.374 137.268L282.823 208.908" stroke="#DC952D" stroke-width="5" stroke-miterlimit="10"/>
<path d="M284.99 126.936C307.954 126.936 326.57 109.222 326.57 87.3716C326.57 65.5211 307.954 47.8076 284.99 47.8076C262.026 47.8076 243.41 65.5211 243.41 87.3716C243.41 109.222 262.026 126.936 284.99 126.936Z" fill="#A5D123"/>
<path d="M284.376 115.524C301.035 115.524 314.541 102.711 314.541 86.9042C314.541 71.0977 301.035 58.2842 284.376 58.2842C267.717 58.2842 254.212 71.0977 254.212 86.9042C254.212 102.711 267.717 115.524 284.376 115.524Z" fill="#FDAA40"/>
<path d="M252.767 112.212C252.875 111.888 261.039 105.624 261.039 105.624" stroke="#C88429" stroke-miterlimit="10"/>
<path d="M264.109 121.68C264.109 121.248 270.504 112.752 270.504 112.752" stroke="#C88429" stroke-miterlimit="10"/>
<path d="M277.151 126.324C277.042 124.884 280.799 115.524 280.799 115.524" stroke="#C88429" stroke-miterlimit="10"/>
<path d="M292.829 126.324L292.937 114.444" stroke="#C88429" stroke-miterlimit="10"/>
<path d="M302.908 109.692C302.908 109.692 308.977 118.26 309.627 118.512" stroke="#C88429" stroke-miterlimit="10"/>
<path d="M318.911 110.232L309.844 102.096" stroke="#C88429" stroke-miterlimit="10"/>
<path d="M325.088 97.1639L313.926 93.4199" stroke="#C88429" stroke-miterlimit="10"/>
<path d="M326.208 81.9717L314.612 83.2677" stroke="#C88429" stroke-miterlimit="10"/>
<path d="M322.235 70.7402L312.156 75.2402" stroke="#C88429" stroke-miterlimit="10"/>
<path d="M315.046 60.2637L306.773 67.2117" stroke="#C88429" stroke-miterlimit="10"/>
<path d="M304.317 52.0195L299.91 61.9195" stroke="#C88429" stroke-miterlimit="10"/>
<path d="M291.854 48.2764L290.084 58.6444" stroke="#C88429" stroke-miterlimit="10"/>
<path d="M276.718 48.8164L279.03 58.3924" stroke="#C88429" stroke-miterlimit="10"/>
<path d="M262.918 53.7842L267.65 62.6042" stroke="#C88429" stroke-miterlimit="10"/>
<path d="M253.634 61.4883L260.606 68.7603" stroke="#C88429" stroke-miterlimit="10"/>
<path d="M246.119 72.9355L255.078 78.2275" stroke="#C88429" stroke-miterlimit="10"/>
<path d="M243.374 87.3721L253.85 87.9121" stroke="#C88429" stroke-miterlimit="10"/>
<path d="M245.686 101.556L256.053 97.2725" stroke="#C88429" stroke-miterlimit="10"/>
<path d="M270.649 61.1639C269.745 61.5599 275.273 113.652 275.273 113.652C275.273 113.652 280.005 117.18 289.867 115.416C299.693 113.652 303.125 110.7 303.125 110.7L296.839 60.516C296.803 60.516 284.954 54.6479 270.649 61.1639Z" fill="#D3F570"/>
<path d="M283.184 70.4884C283.437 70.4884 283.148 65.2324 283.148 65.2324L288.423 65.3044V70.7764C288.423 70.7764 291.927 71.2804 293.155 72.3244C294.383 73.3684 294.961 74.0164 294.961 74.0164L290.446 78.5164C290.446 78.5164 286.725 75.3844 283.004 77.8684C283.004 77.8684 281.161 81.5404 284.557 82.5844C284.557 82.5844 288.242 82.5124 290.518 83.3044C292.794 84.0964 297.743 87.5164 296.153 93.8164C294.564 100.116 289.037 101.448 289.037 101.448L288.495 101.556L288.748 106.092C288.748 106.092 283.799 106.38 283.546 106.236C283.329 106.128 283.437 101.16 283.437 101.16C283.437 101.16 279.644 100.728 276.537 98.2444L275.49 96.9124L280.367 92.3404C280.367 92.3404 282.859 95.2924 286.978 95.0404C291.096 94.7884 290.048 89.7124 287.989 89.4604C285.93 89.1724 279.355 89.5684 276.248 83.3044C273.142 77.0404 279.283 70.2724 283.184 70.4884Z" fill="#DC952D"/>
<path d="M202.789 152.454C217.752 139.271 219.65 117.052 207.029 102.826C194.408 88.601 172.047 87.7561 157.084 100.939C142.122 114.122 140.224 136.342 152.845 150.567C165.466 164.792 187.827 165.637 202.789 152.454Z" fill="#DC952D"/>
<path d="M195.837 145.384C206.688 135.823 208.083 119.728 198.95 109.435C189.818 99.1418 173.618 98.5485 162.766 108.11C151.914 117.671 150.52 133.767 159.652 144.06C168.784 154.353 184.985 154.946 195.837 145.384Z" fill="#FDAA40"/>
<path d="M173.327 161.388C173.219 161.1 174.917 152.316 174.917 152.316" stroke="#C88429" stroke-miterlimit="10"/>
<path d="M186.188 161.028C185.935 160.74 185.213 151.56 185.213 151.56" stroke="#C88429" stroke-miterlimit="10"/>
<path d="M197.351 156.528C196.448 155.664 193.485 147.42 193.485 147.42" stroke="#C88429" stroke-miterlimit="10"/>
<path d="M207.575 147.528L200.783 139.752" stroke="#C88429" stroke-miterlimit="10"/>
<path d="M204.504 130.968C204.504 130.968 213.427 133.056 213.969 132.84" stroke="#C88429" stroke-miterlimit="10"/>
<path d="M215.269 122.112L204.648 122.004" stroke="#C88429" stroke-miterlimit="10"/>
<path d="M211.728 110.052L202.3 114.012" stroke="#C88429" stroke-miterlimit="10"/>
<path d="M203.672 99.5039L196.881 107.028" stroke="#C88429" stroke-miterlimit="10"/>
<path d="M194.569 94.5L190.632 103.176" stroke="#C88429" stroke-miterlimit="10"/>
<path d="M183.877 91.7998L182.468 101.052" stroke="#C88429" stroke-miterlimit="10"/>
<path d="M172.1 92.5557L174.953 101.556" stroke="#C88429" stroke-miterlimit="10"/>
<path d="M161.84 97.3076L166.644 105.048" stroke="#C88429" stroke-miterlimit="10"/>
<path d="M152.303 106.344L159.347 111.24" stroke="#C88429" stroke-miterlimit="10"/>
<path d="M146.162 117.468L154.326 120.492" stroke="#C88429" stroke-miterlimit="10"/>
<path d="M144.572 127.836L153.315 128.556" stroke="#C88429" stroke-miterlimit="10"/>
<path d="M146.307 139.572L155.157 137.88" stroke="#C88429" stroke-miterlimit="10"/>
<path d="M152.845 150.588L159.961 144.9" stroke="#C88429" stroke-miterlimit="10"/>
<path d="M162.526 158.472L166.825 149.724" stroke="#C88429" stroke-miterlimit="10"/>
<path d="M169.029 116.712C169.209 116.568 165.958 113.328 165.958 113.328L169.426 110.376L172.569 113.94C172.569 113.94 175.134 112.248 176.543 112.212C177.952 112.176 178.71 112.248 178.71 112.248L178.385 117.792C178.385 117.792 174.158 117.9 173.183 121.644C173.183 121.644 174.122 125.1 176.904 123.804C176.904 123.804 179.252 121.644 181.203 120.852C183.154 120.06 188.319 119.448 190.92 124.452C193.521 129.456 190.668 133.524 190.668 133.524L190.379 133.92L193.16 136.728C193.16 136.728 190.09 139.752 189.873 139.824C189.656 139.896 186.874 136.584 186.874 136.584C186.874 136.584 184.129 138.492 180.697 138.636L179.252 138.384L179.794 132.588C179.794 132.588 183.117 133.092 185.646 130.536C188.211 127.98 184.562 125.316 183.081 126.324C181.6 127.332 177.518 131.364 171.883 129.06C166.283 126.72 166.355 118.836 169.029 116.712Z" fill="#DC952D"/>
<path d="M413.967 154.601C430.122 144.536 434.638 122.696 424.049 105.821C413.465 88.9458 391.783 83.4255 375.628 93.4908C359.474 103.556 354.959 125.396 365.545 142.271C376.133 159.146 397.812 164.666 413.967 154.601Z" fill="#A5D123"/>
<path d="M408.762 145.525C420.452 138.241 423.703 122.416 416.027 110.177C408.346 97.938 392.647 93.92 380.956 101.203C369.27 108.486 366.015 124.312 373.695 136.55C381.372 148.789 397.075 152.807 408.762 145.525Z" fill="#FDAA40"/>
<path d="M361.575 111.816C361.864 111.744 370.281 114.84 370.281 114.84" stroke="#C88429" stroke-miterlimit="10"/>
<path d="M359.805 124.56C360.13 124.344 369.342 125.172 369.342 125.172" stroke="#C88429" stroke-miterlimit="10"/>
<path d="M362.406 136.26C363.418 135.504 372.052 133.956 372.052 133.956" stroke="#C88429" stroke-miterlimit="10"/>
<path d="M369.631 147.78L378.481 142.38" stroke="#C88429" stroke-miterlimit="10"/>
<path d="M386.538 147.492C386.538 147.492 382.998 155.916 383.142 156.492" stroke="#C88429" stroke-miterlimit="10"/>
<path d="M393.51 159.516L395.388 149.112" stroke="#C88429" stroke-miterlimit="10"/>
<path d="M406.082 158.04L403.697 148.104" stroke="#C88429" stroke-miterlimit="10"/>
<path d="M417.822 151.848L411.5 143.928" stroke="#C88429" stroke-miterlimit="10"/>
<path d="M424.288 143.748L416.305 138.42" stroke="#C88429" stroke-miterlimit="10"/>
<path d="M428.695 133.632L419.772 130.752" stroke="#C88429" stroke-miterlimit="10"/>
<path d="M429.888 121.968L420.495 123.3" stroke="#C88429" stroke-miterlimit="10"/>
<path d="M426.889 111.096L418.436 114.552" stroke="#C88429" stroke-miterlimit="10"/>
<path d="M419.519 100.224L413.486 106.344" stroke="#C88429" stroke-miterlimit="10"/>
<path d="M409.477 92.376L405.178 99.9" stroke="#C88429" stroke-miterlimit="10"/>
<path d="M399.506 89.0996L397.339 97.5596" stroke="#C88429" stroke-miterlimit="10"/>
<path d="M387.585 88.8477L387.802 97.8477" stroke="#C88429" stroke-miterlimit="10"/>
<path d="M375.628 93.4922L380.071 101.448" stroke="#C88429" stroke-miterlimit="10"/>
<path d="M366.199 101.7L374.183 107.352" stroke="#C88429" stroke-miterlimit="10"/>
<path d="M407.598 101.448C406.875 100.98 370.895 129.06 370.895 129.06C370.895 129.06 370.461 134.172 376.314 140.58C382.13 146.988 385.923 148.14 385.923 148.14L420.133 120.384C420.133 120.348 418.977 108.936 407.598 101.448Z" fill="#D3F570"/>
<path d="M406.478 114.948C406.586 115.128 410.343 112.5 410.343 112.5L412.728 116.388L408.682 118.908C408.682 118.908 409.946 121.716 409.729 123.084C409.512 124.452 409.332 125.208 409.332 125.208L403.913 123.984C403.913 123.984 404.527 119.844 400.951 118.224C400.951 118.224 397.374 118.584 398.169 121.536C398.169 121.536 399.939 124.2 400.409 126.252C400.879 128.304 400.626 133.488 395.243 135.216C389.86 136.944 386.32 133.488 386.32 133.488L385.995 133.164L382.744 135.468C382.744 135.468 380.251 131.94 380.215 131.724C380.179 131.508 383.9 129.312 383.9 129.312C383.9 129.312 382.455 126.324 382.888 122.904L383.394 121.5L389.03 122.976C389.03 122.976 387.982 126.144 390.077 129.096C392.172 132.012 395.424 128.88 394.665 127.26C393.943 125.64 390.583 120.96 393.798 115.812C397.049 110.628 404.816 111.96 406.478 114.948Z" fill="#DC952D"/>
<path d="M234.09 132.66C234.09 132.66 245.361 144.432 254.934 149.472C264.543 154.512 282.028 163.764 282.028 163.764C282.028 163.764 284.015 165.24 279.21 165.168C274.405 165.096 268.589 165.924 258.836 161.784C249.082 157.644 242.037 152.856 237.955 144.612C233.873 136.368 234.09 132.66 234.09 132.66Z" fill="#2E8656"/>
<path d="M282.498 116.568L283.293 249.516" stroke="#DC952D" stroke-width="5" stroke-miterlimit="10"/>
<path d="M230.405 274.788C229.61 275.976 236.582 360.18 236.582 360.18C236.582 360.18 238.172 363.78 241.965 365.148L327.256 365.544C327.256 365.544 330.869 364.536 332.855 359.964L336.251 274.392L230.405 274.788Z" fill="#F0512A"/>
<path d="M229.791 272.052L231.2 290.484L335.529 289.584L336.143 277.272L229.791 272.052Z" fill="#C92615"/>
<path d="M312.951 284.544C314.866 285.984 317.467 288.324 319.562 291.816C328.738 306.792 318.839 326.196 317.358 329.112C316.347 331.056 308.977 345.06 293.046 352.548C289.217 354.348 289.361 353.664 255.44 360.972C252.911 361.512 240.34 364.212 240.376 364.212L240.231 364.284C240.231 364.284 240.737 364.572 241.315 364.86C241.893 365.112 241.965 365.148 241.965 365.148L327.257 365.544C327.257 365.544 329.569 365.076 331.194 362.7C332.856 360.324 332.856 359.784 332.856 359.784L335.529 289.62C328.015 287.892 320.465 286.2 312.951 284.544Z" fill="#C92615"/>
<path d="M338.094 279.144H225.926C223.542 279.144 221.591 277.2 221.591 274.824V245.052C221.591 242.676 223.542 240.732 225.926 240.732H338.094C340.478 240.732 342.429 242.676 342.429 245.052V274.824C342.429 277.2 340.478 279.144 338.094 279.144Z" fill="#F0512A"/>
<path d="M325.631 242.028C325.631 242.028 334.662 244.188 336.468 249.804C338.274 255.42 339.033 259.56 337.227 264.492C335.457 269.316 331.663 273.888 327.365 276.444C320.284 280.692 315.443 277.416 294.202 278.892C291.673 279.072 289.578 279.252 288.277 279.396C299.946 279.288 311.578 279.216 323.246 279.18C328.195 279.18 333.145 279.18 338.094 279.18C338.094 279.18 340.225 279.252 341.309 277.596C341.309 277.596 342.067 277.272 342.32 275.724C342.573 274.176 342.429 244.728 342.429 244.728C342.429 244.728 342.356 242.64 340.803 241.704C339.214 240.768 339.394 240.912 337.263 240.768C335.131 240.624 325.233 240.768 325.233 240.768L321.44 240.84L325.631 242.028Z" fill="#C92615"/>
<path d="M401.674 368.712H169.571C168.343 368.712 167.331 367.704 167.331 366.48V365.832C167.331 364.608 168.343 363.6 169.571 363.6H401.674C402.902 363.6 403.914 364.608 403.914 365.832V366.48C403.914 367.704 402.902 368.712 401.674 368.712Z" fill="#BA0063"/>
</g>
<defs>
<clipPath id="clip0_87_1191">
<rect width="578" height="432" fill="white"/>
</clipPath>
</defs>
</svg>
