<svg width="324" height="662" viewBox="0 0 324 662" fill="none" xmlns="http://www.w3.org/2000/svg">
<rect x="0.245117" width="322.903" height="661.038" rx="60" fill="#FBE2DD"/>
<rect x="1.24512" y="1" width="320.903" height="659.038" rx="59" stroke="black" stroke-opacity="0.3" stroke-width="2"/>
<rect x="6.94629" y="6.70215" width="309.5" height="648.243" rx="50" fill="#060405"/>
<rect x="17.3047" y="15.8408" width="288.785" height="629.966" rx="40" fill="white"/>
<path d="M86.1494 15.2314H237.853L235.208 15.2801C229.333 15.3882 224.723 20.3547 225.053 26.2214V26.2214C225.387 32.1632 220.659 37.1645 214.708 37.1645H109.295C103.344 37.1645 98.6155 32.1632 98.9493 26.2214V26.2214C99.2789 20.3547 94.6694 15.3882 88.7944 15.2801L86.1494 15.2314Z" fill="#060405"/>
<circle cx="115.393" cy="21.3241" r="5.48326" fill="#393135"/>
<circle cx="113.566" cy="19.4966" r="2.43701" fill="#66FFED" fill-opacity="0.2"/>
</svg>
